<?xml version="1.0" encoding="utf-8"?>
<!-- Generator: Adobe Illustrator 26.0.0, SVG Export Plug-In . SVG Version: 6.00 Build 0)  -->
<svg version="1.1" id="Ñëîé_1" xmlns="http://www.w3.org/2000/svg" xmlns:xlink="http://www.w3.org/1999/xlink" x="0px" y="0px"
	 viewBox="0 0 1200 1200" style="enable-background:new 0 0 1200 1200;" xml:space="preserve">
<style type="text/css">
	.st0{fill:#607081;}
	.st1{fill:#162E53;}
</style>
<g>
	<path class="st0" d="M80.24,0H69.76C73.13,8.53,75,17.81,75,27.53C75,17.81,76.87,8.53,80.24,0z"/>
	<path class="st0" d="M230.24,0h-10.48c3.37,8.53,5.24,17.81,5.24,27.53C225,17.81,226.87,8.53,230.24,0z"/>
	<path class="st0" d="M380.24,0h-10.48c3.37,8.53,5.24,17.81,5.24,27.53C375,17.81,376.87,8.53,380.24,0z"/>
	<path class="st0" d="M530.24,0h-10.48c3.37,8.53,5.24,17.81,5.24,27.53C525,17.81,526.87,8.53,530.24,0z"/>
	<path class="st0" d="M680.24,0h-10.48c3.37,8.53,5.24,17.81,5.24,27.53C675,17.81,676.87,8.53,680.24,0z"/>
	<path class="st0" d="M830.24,0h-10.48c3.37,8.53,5.24,17.81,5.24,27.53C825,17.81,826.87,8.53,830.24,0z"/>
	<path class="st0" d="M980.24,0h-10.48c3.37,8.53,5.24,17.81,5.24,27.53C975,17.81,976.87,8.53,980.24,0z"/>
	<path class="st0" d="M1130.24,0h-10.48c3.37,8.53,5.24,17.81,5.24,27.53C1125,17.81,1126.87,8.53,1130.24,0z"/>
	<path class="st1" d="M1200,27.47V0h-5.24c-10.67,27.01-36.55,46.33-67.09,47.4c-1.74-6.33-2.67-12.99-2.67-19.87
		c0,6.88-0.93,13.54-2.67,19.87c-30.54-1.07-56.42-20.39-67.09-47.4h-10.48c-10.67,27.01-36.55,46.33-67.09,47.4
		c-1.74-6.33-2.67-12.99-2.67-19.87c0,6.88-0.93,13.54-2.67,19.87c-30.54-1.07-56.42-20.39-67.09-47.4h-10.48
		c-10.67,27.01-36.55,46.33-67.09,47.4c-1.74-6.33-2.67-12.99-2.67-19.87c0,6.88-0.93,13.54-2.67,19.87
		c-30.54-1.07-56.42-20.39-67.09-47.4h-10.48c-10.67,27.01-36.55,46.33-67.09,47.4c-1.74-6.33-2.67-12.99-2.67-19.87
		c0,6.88-0.93,13.54-2.67,19.87c-30.54-1.07-56.42-20.39-67.09-47.4h-10.48c-10.67,27.01-36.55,46.33-67.09,47.4
		c-1.74-6.33-2.67-12.99-2.67-19.87c0,6.88-0.93,13.54-2.67,19.87c-30.54-1.07-56.42-20.39-67.09-47.4h-10.48
		c-10.67,27.01-36.55,46.33-67.09,47.4c-1.74-6.33-2.67-12.99-2.67-19.87c0,6.88-0.93,13.54-2.67,19.87
		c-30.54-1.07-56.42-20.39-67.09-47.4h-10.48c-10.67,27.01-36.55,46.33-67.09,47.4c-1.74-6.33-2.67-12.99-2.67-19.87
		c0,6.88-0.93,13.54-2.67,19.87c-30.54-1.07-56.42-20.39-67.09-47.4h-10.48c-10.67,27.01-36.55,46.33-67.09,47.4
		C75.93,41.07,75,34.41,75,27.53c0,6.88-0.93,13.54-2.67,19.87C41.79,46.33,15.91,27.01,5.24,0H0v27.47
		c25.65,0,48.27,12.89,61.79,32.53C48.27,79.64,25.65,92.53,0,92.53v55C0,107,32.15,74.01,72.33,72.6C74.07,78.93,75,85.59,75,92.47
		c0-6.88,0.93-13.54,2.67-19.87c40.18,1.41,72.33,34.41,72.33,74.93c0-40.52,32.15-73.52,72.33-74.93
		c1.74,6.33,2.67,12.99,2.67,19.87c0-6.88,0.93-13.54,2.67-19.87c40.18,1.41,72.33,34.41,72.33,74.93
		c0-40.52,32.15-73.52,72.33-74.93c1.74,6.33,2.67,12.99,2.67,19.87c0-6.88,0.93-13.54,2.67-19.87
		c40.18,1.41,72.33,34.41,72.33,74.93c0-40.52,32.15-73.52,72.33-74.93c1.74,6.33,2.67,12.99,2.67,19.87
		c0-6.88,0.93-13.54,2.67-19.87c40.18,1.41,72.33,34.41,72.33,74.93c0-40.52,32.15-73.52,72.33-74.93
		c1.74,6.33,2.67,12.99,2.67,19.87c0-6.88,0.93-13.54,2.67-19.87c40.18,1.41,72.33,34.41,72.33,74.93
		c0-40.52,32.15-73.52,72.33-74.93c1.74,6.33,2.67,12.99,2.67,19.87c0-6.88,0.93-13.54,2.67-19.87
		c40.18,1.41,72.33,34.41,72.33,74.93c0-40.52,32.15-73.52,72.33-74.93c1.74,6.33,2.67,12.99,2.67,19.87
		c0-6.88,0.93-13.54,2.67-19.87c40.18,1.41,72.33,34.41,72.33,74.93c0-40.52,32.15-73.52,72.33-74.93
		c1.74,6.33,2.67,12.99,2.67,19.87c0-6.88,0.93-13.54,2.67-19.87c40.18,1.41,72.33,34.41,72.33,74.93c0,0,0,0,0,0v-55
		c-25.65,0-48.27-12.89-61.79-32.53C1151.73,40.36,1174.35,27.47,1200,27.47z M150,92.53L150,92.53
		c-25.65,0-48.27-12.89-61.79-32.53c13.52-19.64,36.14-32.53,61.79-32.53S198.27,40.36,211.79,60
		C198.27,79.64,175.65,92.53,150,92.53z M300,92.53L300,92.53c-25.65,0-48.27-12.89-61.79-32.53
		c13.52-19.64,36.14-32.53,61.79-32.53S348.27,40.36,361.79,60C348.27,79.64,325.65,92.53,300,92.53z M450,92.53L450,92.53
		c-25.65,0-48.27-12.89-61.79-32.53c13.52-19.64,36.14-32.53,61.79-32.53S498.27,40.36,511.79,60
		C498.27,79.64,475.65,92.53,450,92.53z M600,92.53L600,92.53c-25.65,0-48.27-12.89-61.79-32.53
		c13.52-19.64,36.14-32.53,61.79-32.53S648.27,40.36,661.79,60C648.27,79.64,625.65,92.53,600,92.53z M750,92.53L750,92.53
		c-25.65,0-48.27-12.89-61.79-32.53c13.52-19.64,36.14-32.53,61.79-32.53S798.27,40.36,811.79,60
		C798.27,79.64,775.65,92.53,750,92.53z M900,92.53c-25.65,0-48.27-12.89-61.79-32.53c13.52-19.64,36.14-32.53,61.79-32.53
		S948.27,40.36,961.79,60C948.27,79.64,925.65,92.53,900,92.53z M1050,92.53c-25.65,0-48.27-12.89-61.79-32.53
		c13.52-19.64,36.14-32.53,61.79-32.53s48.27,12.89,61.79,32.53C1098.27,79.64,1075.65,92.53,1050,92.53z"/>
	<path class="st1" d="M1125,92.47c0,40.52-32.15,73.52-72.33,74.93c-1.74-6.33-2.67-12.99-2.67-19.87c0,6.88-0.93,13.54-2.67,19.87
		c-40.18-1.41-72.33-34.41-72.33-74.93c0,40.52-32.15,73.52-72.33,74.93c-1.74-6.33-2.67-12.99-2.67-19.87
		c0,6.88-0.93,13.54-2.67,19.87C857.15,165.99,825,132.99,825,92.47c0,40.52-32.15,73.52-72.33,74.93
		c-1.74-6.33-2.67-12.99-2.67-19.87c0,6.88-0.93,13.54-2.67,19.87C707.15,165.99,675,132.99,675,92.47
		c0,40.52-32.15,73.52-72.33,74.93c-1.74-6.33-2.67-12.99-2.67-19.87c0,6.88-0.93,13.54-2.67,19.87
		C557.15,165.99,525,132.99,525,92.47c0,40.52-32.15,73.52-72.33,74.93c-1.74-6.33-2.67-12.99-2.67-19.87
		c0,6.88-0.93,13.54-2.67,19.87C407.15,165.99,375,132.99,375,92.47c0,40.52-32.15,73.52-72.33,74.93
		c-1.74-6.33-2.67-12.99-2.67-19.87c0,6.88-0.93,13.54-2.67,19.87C257.15,165.99,225,132.99,225,92.47
		c0,40.52-32.15,73.52-72.33,74.93c-1.74-6.33-2.67-12.99-2.67-19.87c0,6.88-0.93,13.54-2.67,19.87
		C107.15,165.99,75,132.99,75,92.47c0,40.52-32.15,73.52-72.33,74.93C0.93,161.08,0,154.41,0,147.53v27.49v17.41v0.1v19.94
		c0-6.88,0.93-13.54,2.67-19.87C42.85,194.01,75,227.01,75,267.53c0-40.52,32.15-73.52,72.33-74.93c1.74,6.33,2.67,12.99,2.67,19.87
		c0-6.88,0.93-13.54,2.67-19.87c40.18,1.41,72.33,34.41,72.33,74.93c0-40.52,32.15-73.52,72.33-74.93
		c1.74,6.33,2.67,12.99,2.67,19.87c0-6.88,0.93-13.54,2.67-19.87c40.18,1.41,72.33,34.41,72.33,74.93
		c0-40.52,32.15-73.52,72.33-74.93c1.74,6.33,2.67,12.99,2.67,19.87c0-6.88,0.93-13.54,2.67-19.87
		c40.18,1.41,72.33,34.41,72.33,74.93c0-40.52,32.15-73.52,72.33-74.93c1.74,6.33,2.67,12.99,2.67,19.87
		c0-6.88,0.93-13.54,2.67-19.87c40.18,1.41,72.33,34.41,72.33,74.93c0-40.52,32.15-73.52,72.33-74.93
		c1.74,6.33,2.67,12.99,2.67,19.87c0-6.88,0.93-13.54,2.67-19.87c40.18,1.41,72.33,34.41,72.33,74.93
		c0-40.52,32.15-73.52,72.33-74.93c1.74,6.33,2.67,12.99,2.67,19.87c0-6.88,0.93-13.54,2.67-19.87
		c40.18,1.41,72.33,34.41,72.33,74.93c0-40.52,32.15-73.52,72.33-74.93c1.74,6.33,2.67,12.99,2.67,19.87
		c0-6.88,0.93-13.54,2.67-19.87c40.18,1.41,72.33,34.41,72.33,74.93c0-40.52,32.15-73.52,72.33-74.93
		c1.74,6.33,2.67,12.99,2.67,19.87v-19.94v-0.1v-17.41v-7.46v-0.1v-19.94c0,0,0,0,0,0c0,6.88-0.93,13.54-2.67,19.87
		C1157.15,165.99,1125,132.99,1125,92.47z M75,212.53c-25.65,0-48.27-12.89-61.79-32.53c13.52-19.64,36.14-32.53,61.79-32.53
		s48.27,12.89,61.79,32.53C123.27,199.64,100.65,212.53,75,212.53z M225,212.53c-25.65,0-48.27-12.89-61.79-32.53
		c13.52-19.64,36.14-32.53,61.79-32.53s48.27,12.89,61.79,32.53C273.27,199.64,250.65,212.53,225,212.53z M375,212.53
		c-25.65,0-48.27-12.89-61.79-32.53c13.52-19.64,36.14-32.53,61.79-32.53s48.27,12.89,61.79,32.53
		C423.27,199.64,400.65,212.53,375,212.53z M525,212.53c-25.65,0-48.27-12.89-61.79-32.53c13.52-19.64,36.14-32.53,61.79-32.53
		c25.65,0,48.27,12.89,61.79,32.53C573.27,199.64,550.65,212.53,525,212.53z M675,212.53c-25.65,0-48.27-12.89-61.79-32.53
		c13.52-19.64,36.14-32.53,61.79-32.53s48.27,12.89,61.79,32.53C723.27,199.64,700.65,212.53,675,212.53z M825,212.53
		c-25.65,0-48.27-12.89-61.79-32.53c13.52-19.64,36.14-32.53,61.79-32.53c25.65,0,48.27,12.89,61.79,32.53
		C873.27,199.64,850.65,212.53,825,212.53z M975,212.53c-25.65,0-48.27-12.89-61.79-32.53c13.52-19.64,36.14-32.53,61.79-32.53
		s48.27,12.89,61.79,32.53C1023.27,199.64,1000.65,212.53,975,212.53z M1125,212.53c-25.65,0-48.27-12.89-61.79-32.53
		c13.52-19.64,36.14-32.53,61.79-32.53s48.27,12.89,61.79,32.53C1173.27,199.64,1150.65,212.53,1125,212.53z"/>
	<path class="st1" d="M1127.67,287.4c-1.74-6.33-2.67-12.99-2.67-19.87c0,6.88-0.93,13.54-2.67,19.87
		c-40.18-1.41-72.33-34.41-72.33-74.93c0,40.52-32.15,73.52-72.33,74.93c-1.74-6.33-2.67-12.99-2.67-19.87
		c0,6.88-0.93,13.54-2.67,19.87c-40.18-1.41-72.33-34.41-72.33-74.93c0,40.52-32.15,73.52-72.33,74.93
		c-1.74-6.33-2.67-12.99-2.67-19.87c0,6.88-0.93,13.54-2.67,19.87c-40.18-1.41-72.33-34.41-72.33-74.93
		c0,40.52-32.15,73.52-72.33,74.93c-1.74-6.33-2.67-12.99-2.67-19.87c0,6.88-0.93,13.54-2.67,19.87
		c-40.18-1.41-72.33-34.41-72.33-74.93c0,40.52-32.15,73.52-72.33,74.93c-1.74-6.33-2.67-12.99-2.67-19.87
		c0,6.88-0.93,13.54-2.67,19.87c-40.18-1.41-72.33-34.41-72.33-74.93c0,40.52-32.15,73.52-72.33,74.93
		c-1.74-6.33-2.67-12.99-2.67-19.87c0,6.88-0.93,13.54-2.67,19.87c-40.18-1.41-72.33-34.41-72.33-74.93
		c0,40.52-32.15,73.52-72.33,74.93c-1.74-6.33-2.67-12.99-2.67-19.87c0,6.88-0.93,13.54-2.67,19.87
		c-40.18-1.41-72.33-34.41-72.33-74.93c0,40.52-32.15,73.52-72.33,74.93c-1.74-6.33-2.67-12.99-2.67-19.87
		c0,6.88-0.93,13.54-2.67,19.87C32.15,285.99,0,252.99,0,212.47v55c25.65,0,48.27,12.89,61.79,32.53
		C48.27,319.64,25.65,332.53,0,332.53v55C0,347,32.15,314.01,72.33,312.6c1.74,6.33,2.67,12.99,2.67,19.87
		c0-6.88,0.93-13.54,2.67-19.87c40.18,1.41,72.33,34.41,72.33,74.93c0-40.52,32.15-73.52,72.33-74.93
		c1.74,6.33,2.67,12.99,2.67,19.87c0-6.88,0.93-13.54,2.67-19.87c40.18,1.41,72.33,34.41,72.33,74.93
		c0-40.52,32.15-73.52,72.33-74.93c1.74,6.33,2.67,12.99,2.67,19.87c0-6.88,0.93-13.54,2.67-19.87
		c40.18,1.41,72.33,34.41,72.33,74.93c0-40.52,32.15-73.52,72.33-74.93c1.74,6.33,2.67,12.99,2.67,19.87
		c0-6.88,0.93-13.54,2.67-19.87c40.18,1.41,72.33,34.41,72.33,74.93c0-40.52,32.15-73.52,72.33-74.93
		c1.74,6.33,2.67,12.99,2.67,19.87c0-6.88,0.93-13.54,2.67-19.87c40.18,1.41,72.33,34.41,72.33,74.93
		c0-40.52,32.15-73.52,72.33-74.93c1.74,6.33,2.67,12.99,2.67,19.87c0-6.88,0.93-13.54,2.67-19.87
		c40.18,1.41,72.33,34.41,72.33,74.93c0-40.52,32.15-73.52,72.33-74.93c1.74,6.33,2.67,12.99,2.67,19.87
		c0-6.88,0.93-13.54,2.67-19.87c40.18,1.41,72.33,34.41,72.33,74.93c0-40.52,32.15-73.52,72.33-74.93
		c1.74,6.33,2.67,12.99,2.67,19.87c0-6.88,0.93-13.54,2.67-19.87c40.18,1.41,72.33,34.41,72.33,74.93c0,0,0,0,0,0v-55
		c-25.65,0-48.27-12.89-61.79-32.53c13.52-19.64,36.14-32.53,61.79-32.53v-55C1200,252.99,1167.85,285.99,1127.67,287.4z
		 M150,332.53L150,332.53c-25.65,0-48.27-12.89-61.79-32.53c13.52-19.64,36.14-32.53,61.79-32.53s48.27,12.89,61.79,32.53
		C198.27,319.64,175.65,332.53,150,332.53z M300,332.53L300,332.53c-25.65,0-48.27-12.89-61.79-32.53
		c13.52-19.64,36.14-32.53,61.79-32.53s48.27,12.89,61.79,32.53C348.27,319.64,325.65,332.53,300,332.53z M450,332.53L450,332.53
		c-25.65,0-48.27-12.89-61.79-32.53c13.52-19.64,36.14-32.53,61.79-32.53s48.27,12.89,61.79,32.53
		C498.27,319.64,475.65,332.53,450,332.53z M600,332.53L600,332.53c-25.65,0-48.27-12.89-61.79-32.53
		c13.52-19.64,36.14-32.53,61.79-32.53s48.27,12.89,61.79,32.53C648.27,319.64,625.65,332.53,600,332.53z M750,332.53L750,332.53
		c-25.65,0-48.27-12.89-61.79-32.53c13.52-19.64,36.14-32.53,61.79-32.53s48.27,12.89,61.79,32.53
		C798.27,319.64,775.65,332.53,750,332.53z M900,332.53c-25.65,0-48.27-12.89-61.79-32.53c13.52-19.64,36.14-32.53,61.79-32.53
		s48.27,12.89,61.79,32.53C948.27,319.64,925.65,332.53,900,332.53z M1050,332.53c-25.65,0-48.27-12.89-61.79-32.53
		c13.52-19.64,36.14-32.53,61.79-32.53s48.27,12.89,61.79,32.53C1098.27,319.64,1075.65,332.53,1050,332.53z"/>
	<path class="st1" d="M1125,332.47c0,40.52-32.15,73.52-72.33,74.93c-1.74-6.33-2.67-12.99-2.67-19.87c0,6.88-0.93,13.54-2.67,19.87
		c-40.18-1.41-72.33-34.41-72.33-74.93c0,40.52-32.15,73.52-72.33,74.93c-1.74-6.33-2.67-12.99-2.67-19.87
		c0,6.88-0.93,13.54-2.67,19.87c-40.18-1.41-72.33-34.41-72.33-74.93c0,40.52-32.15,73.52-72.33,74.93
		c-1.74-6.33-2.67-12.99-2.67-19.87c0,6.88-0.93,13.54-2.67,19.87c-40.18-1.41-72.33-34.41-72.33-74.93
		c0,40.52-32.15,73.52-72.33,74.93c-1.74-6.33-2.67-12.99-2.67-19.87c0,6.88-0.93,13.54-2.67,19.87
		c-40.18-1.41-72.33-34.41-72.33-74.93c0,40.52-32.15,73.52-72.33,74.93c-1.74-6.33-2.67-12.99-2.67-19.87
		c0,6.88-0.93,13.54-2.67,19.87c-40.18-1.41-72.33-34.41-72.33-74.93c0,40.52-32.15,73.52-72.33,74.93
		c-1.74-6.33-2.67-12.99-2.67-19.87c0,6.88-0.93,13.54-2.67,19.87c-40.18-1.41-72.33-34.41-72.33-74.93
		c0,40.52-32.15,73.52-72.33,74.93c-1.74-6.33-2.67-12.99-2.67-19.87c0,6.88-0.93,13.54-2.67,19.87
		C107.15,405.99,75,372.99,75,332.47c0,40.52-32.15,73.52-72.33,74.93C0.93,401.08,0,394.41,0,387.53v27.49v17.41v0.1v19.94
		c0-6.88,0.93-13.54,2.67-19.87C42.85,434.01,75,467.01,75,507.53c0-40.52,32.15-73.52,72.33-74.93c1.74,6.33,2.67,12.99,2.67,19.87
		c0-6.88,0.93-13.54,2.67-19.87c40.18,1.41,72.33,34.41,72.33,74.93c0-40.52,32.15-73.52,72.33-74.93
		c1.74,6.33,2.67,12.99,2.67,19.87c0-6.88,0.93-13.54,2.67-19.87c40.18,1.41,72.33,34.41,72.33,74.93
		c0-40.52,32.15-73.52,72.33-74.93c1.74,6.33,2.67,12.99,2.67,19.87c0-6.88,0.93-13.54,2.67-19.87
		c40.18,1.41,72.33,34.41,72.33,74.93c0-40.52,32.15-73.52,72.33-74.93c1.74,6.33,2.67,12.99,2.67,19.87
		c0-6.88,0.93-13.54,2.67-19.87c40.18,1.41,72.33,34.41,72.33,74.93c0-40.52,32.15-73.52,72.33-74.93
		c1.74,6.33,2.67,12.99,2.67,19.87c0-6.88,0.93-13.54,2.67-19.87c40.18,1.41,72.33,34.41,72.33,74.93
		c0-40.52,32.15-73.52,72.33-74.93c1.74,6.33,2.67,12.99,2.67,19.87c0-6.88,0.93-13.54,2.67-19.87
		c40.18,1.41,72.33,34.41,72.33,74.93c0-40.52,32.15-73.52,72.33-74.93c1.74,6.33,2.67,12.99,2.67,19.87
		c0-6.88,0.93-13.54,2.67-19.87c40.18,1.41,72.33,34.41,72.33,74.93c0-40.52,32.15-73.52,72.33-74.93
		c1.74,6.33,2.67,12.99,2.67,19.87v-19.94v-0.1v-17.41v-7.46v-0.1v-19.94c0,0,0,0,0,0c0,6.88-0.93,13.54-2.67,19.87
		C1157.15,405.99,1125,372.99,1125,332.47z M75,452.53c-25.65,0-48.27-12.89-61.79-32.53c13.52-19.64,36.14-32.53,61.79-32.53
		s48.27,12.89,61.79,32.53C123.27,439.64,100.65,452.53,75,452.53z M225,452.53c-25.65,0-48.27-12.89-61.79-32.53
		c13.52-19.64,36.14-32.53,61.79-32.53s48.27,12.89,61.79,32.53C273.27,439.64,250.65,452.53,225,452.53z M375,452.53
		c-25.65,0-48.27-12.89-61.79-32.53c13.52-19.64,36.14-32.53,61.79-32.53s48.27,12.89,61.79,32.53
		C423.27,439.64,400.65,452.53,375,452.53z M525,452.53c-25.65,0-48.27-12.89-61.79-32.53c13.52-19.64,36.14-32.53,61.79-32.53
		c25.65,0,48.27,12.89,61.79,32.53C573.27,439.64,550.65,452.53,525,452.53z M675,452.53c-25.65,0-48.27-12.89-61.79-32.53
		c13.52-19.64,36.14-32.53,61.79-32.53s48.27,12.89,61.79,32.53C723.27,439.64,700.65,452.53,675,452.53z M825,452.53
		c-25.65,0-48.27-12.89-61.79-32.53c13.52-19.64,36.14-32.53,61.79-32.53c25.65,0,48.27,12.89,61.79,32.53
		C873.27,439.64,850.65,452.53,825,452.53z M975,452.53c-25.65,0-48.27-12.89-61.79-32.53c13.52-19.64,36.14-32.53,61.79-32.53
		s48.27,12.89,61.79,32.53C1023.27,439.64,1000.65,452.53,975,452.53z M1125,452.53c-25.65,0-48.27-12.89-61.79-32.53
		c13.52-19.64,36.14-32.53,61.79-32.53s48.27,12.89,61.79,32.53C1173.27,439.64,1150.65,452.53,1125,452.53z"/>
	<path class="st1" d="M1127.67,527.4c-1.74-6.33-2.67-12.99-2.67-19.87c0,6.88-0.93,13.54-2.67,19.87
		c-40.18-1.41-72.33-34.41-72.33-74.93c0,40.52-32.15,73.52-72.33,74.93c-1.74-6.33-2.67-12.99-2.67-19.87
		c0,6.88-0.93,13.54-2.67,19.87c-40.18-1.41-72.33-34.41-72.33-74.93c0,40.52-32.15,73.52-72.33,74.93
		c-1.74-6.33-2.67-12.99-2.67-19.87c0,6.88-0.93,13.54-2.67,19.87c-40.18-1.41-72.33-34.41-72.33-74.93
		c0,40.52-32.15,73.52-72.33,74.93c-1.74-6.33-2.67-12.99-2.67-19.87c0,6.88-0.93,13.54-2.67,19.87
		c-40.18-1.41-72.33-34.41-72.33-74.93c0,40.52-32.15,73.52-72.33,74.93c-1.74-6.33-2.67-12.99-2.67-19.87
		c0,6.88-0.93,13.54-2.67,19.87c-40.18-1.41-72.33-34.41-72.33-74.93c0,40.52-32.15,73.52-72.33,74.93
		c-1.74-6.33-2.67-12.99-2.67-19.87c0,6.88-0.93,13.54-2.67,19.87c-40.18-1.41-72.33-34.41-72.33-74.93
		c0,40.52-32.15,73.52-72.33,74.93c-1.74-6.33-2.67-12.99-2.67-19.87c0,6.88-0.93,13.54-2.67,19.87
		c-40.18-1.41-72.33-34.41-72.33-74.93c0,40.52-32.15,73.52-72.33,74.93c-1.74-6.33-2.67-12.99-2.67-19.87
		c0,6.88-0.93,13.54-2.67,19.87C32.15,525.99,0,492.99,0,452.47v55c25.65,0,48.27,12.89,61.79,32.53
		C48.27,559.64,25.65,572.53,0,572.53v55C0,587,32.15,554.01,72.33,552.6c1.74,6.33,2.67,12.99,2.67,19.87
		c0-6.88,0.93-13.54,2.67-19.87c40.18,1.41,72.33,34.41,72.33,74.93c0-40.52,32.15-73.52,72.33-74.93
		c1.74,6.33,2.67,12.99,2.67,19.87c0-6.88,0.93-13.54,2.67-19.87c40.18,1.41,72.33,34.41,72.33,74.93
		c0-40.52,32.15-73.52,72.33-74.93c1.74,6.33,2.67,12.99,2.67,19.87c0-6.88,0.93-13.54,2.67-19.87
		c40.18,1.41,72.33,34.41,72.33,74.93c0-40.52,32.15-73.52,72.33-74.93c1.74,6.33,2.67,12.99,2.67,19.87
		c0-6.88,0.93-13.54,2.67-19.87c40.18,1.41,72.33,34.41,72.33,74.93c0-40.52,32.15-73.52,72.33-74.93
		c1.74,6.33,2.67,12.99,2.67,19.87c0-6.88,0.93-13.54,2.67-19.87c40.18,1.41,72.33,34.41,72.33,74.93
		c0-40.52,32.15-73.52,72.33-74.93c1.74,6.33,2.67,12.99,2.67,19.87c0-6.88,0.93-13.54,2.67-19.87
		c40.18,1.41,72.33,34.41,72.33,74.93c0-40.52,32.15-73.52,72.33-74.93c1.74,6.33,2.67,12.99,2.67,19.87
		c0-6.88,0.93-13.54,2.67-19.87c40.18,1.41,72.33,34.41,72.33,74.93c0-40.52,32.15-73.52,72.33-74.93
		c1.74,6.33,2.67,12.99,2.67,19.87c0-6.88,0.93-13.54,2.67-19.87c40.18,1.41,72.33,34.41,72.33,74.93c0,0,0,0,0,0v-55
		c-25.65,0-48.27-12.89-61.79-32.53c13.52-19.64,36.14-32.53,61.79-32.53v-55C1200,492.99,1167.85,525.99,1127.67,527.4z
		 M150,572.53L150,572.53c-25.65,0-48.27-12.89-61.79-32.53c13.52-19.64,36.14-32.53,61.79-32.53s48.27,12.89,61.79,32.53
		C198.27,559.64,175.65,572.53,150,572.53z M300,572.53L300,572.53c-25.65,0-48.27-12.89-61.79-32.53
		c13.52-19.64,36.14-32.53,61.79-32.53s48.27,12.89,61.79,32.53C348.27,559.64,325.65,572.53,300,572.53z M450,572.53L450,572.53
		c-25.65,0-48.27-12.89-61.79-32.53c13.52-19.64,36.14-32.53,61.79-32.53s48.27,12.89,61.79,32.53
		C498.27,559.64,475.65,572.53,450,572.53z M600,572.53L600,572.53c-25.65,0-48.27-12.89-61.79-32.53
		c13.52-19.64,36.14-32.53,61.79-32.53s48.27,12.89,61.79,32.53C648.27,559.64,625.65,572.53,600,572.53z M750,572.53L750,572.53
		c-25.65,0-48.27-12.89-61.79-32.53c13.52-19.64,36.14-32.53,61.79-32.53s48.27,12.89,61.79,32.53
		C798.27,559.64,775.65,572.53,750,572.53z M900,572.53c-25.65,0-48.27-12.89-61.79-32.53c13.52-19.64,36.14-32.53,61.79-32.53
		s48.27,12.89,61.79,32.53C948.27,559.64,925.65,572.53,900,572.53z M1050,572.53c-25.65,0-48.27-12.89-61.79-32.53
		c13.52-19.64,36.14-32.53,61.79-32.53s48.27,12.89,61.79,32.53C1098.27,559.64,1075.65,572.53,1050,572.53z"/>
	<path class="st1" d="M1125,572.47c0,40.52-32.15,73.52-72.33,74.93c-1.74-6.33-2.67-12.99-2.67-19.87c0,6.88-0.93,13.54-2.67,19.87
		c-40.18-1.41-72.33-34.41-72.33-74.93c0,40.52-32.15,73.52-72.33,74.93c-1.74-6.33-2.67-12.99-2.67-19.87
		c0,6.88-0.93,13.54-2.67,19.87c-40.18-1.41-72.33-34.41-72.33-74.93c0,40.52-32.15,73.52-72.33,74.93
		c-1.74-6.33-2.67-12.99-2.67-19.87c0,6.88-0.93,13.54-2.67,19.87c-40.18-1.41-72.33-34.41-72.33-74.93
		c0,40.52-32.15,73.52-72.33,74.93c-1.74-6.33-2.67-12.99-2.67-19.87c0,6.88-0.93,13.54-2.67,19.87
		c-40.18-1.41-72.33-34.41-72.33-74.93c0,40.52-32.15,73.52-72.33,74.93c-1.74-6.33-2.67-12.99-2.67-19.87
		c0,6.88-0.93,13.54-2.67,19.87c-40.18-1.41-72.33-34.41-72.33-74.93c0,40.52-32.15,73.52-72.33,74.93
		c-1.74-6.33-2.67-12.99-2.67-19.87c0,6.88-0.93,13.54-2.67,19.87c-40.18-1.41-72.33-34.41-72.33-74.93
		c0,40.52-32.15,73.52-72.33,74.93c-1.74-6.33-2.67-12.99-2.67-19.87c0,6.88-0.93,13.54-2.67,19.87
		C107.15,645.99,75,612.99,75,572.47c0,40.52-32.15,73.52-72.33,74.93C0.93,641.08,0,634.41,0,627.53v27.49v17.41v0.1v19.94
		c0-6.88,0.93-13.54,2.67-19.87C42.85,674.01,75,707.01,75,747.53c0-40.52,32.15-73.52,72.33-74.93c1.74,6.33,2.67,12.99,2.67,19.87
		c0-6.88,0.93-13.54,2.67-19.87c40.18,1.41,72.33,34.41,72.33,74.93c0-40.52,32.15-73.52,72.33-74.93
		c1.74,6.33,2.67,12.99,2.67,19.87c0-6.88,0.93-13.54,2.67-19.87c40.18,1.41,72.33,34.41,72.33,74.93
		c0-40.52,32.15-73.52,72.33-74.93c1.74,6.33,2.67,12.99,2.67,19.87c0-6.88,0.93-13.54,2.67-19.87
		c40.18,1.41,72.33,34.41,72.33,74.93c0-40.52,32.15-73.52,72.33-74.93c1.74,6.33,2.67,12.99,2.67,19.87
		c0-6.88,0.93-13.54,2.67-19.87c40.18,1.41,72.33,34.41,72.33,74.93c0-40.52,32.15-73.52,72.33-74.93
		c1.74,6.33,2.67,12.99,2.67,19.87c0-6.88,0.93-13.54,2.67-19.87c40.18,1.41,72.33,34.41,72.33,74.93
		c0-40.52,32.15-73.52,72.33-74.93c1.74,6.33,2.67,12.99,2.67,19.87c0-6.88,0.93-13.54,2.67-19.87
		c40.18,1.41,72.33,34.41,72.33,74.93c0-40.52,32.15-73.52,72.33-74.93c1.74,6.33,2.67,12.99,2.67,19.87
		c0-6.88,0.93-13.54,2.67-19.87c40.18,1.41,72.33,34.41,72.33,74.93c0-40.52,32.15-73.52,72.33-74.93
		c1.74,6.33,2.67,12.99,2.67,19.87v-19.94v-0.1v-17.41v-7.46v-0.1v-19.94c0,0,0,0,0,0c0,6.88-0.93,13.54-2.67,19.87
		C1157.15,645.99,1125,612.99,1125,572.47z M75,692.53c-25.65,0-48.27-12.89-61.79-32.53c13.52-19.64,36.14-32.53,61.79-32.53
		s48.27,12.89,61.79,32.53C123.27,679.64,100.65,692.53,75,692.53z M225,692.53c-25.65,0-48.27-12.89-61.79-32.53
		c13.52-19.64,36.14-32.53,61.79-32.53s48.27,12.89,61.79,32.53C273.27,679.64,250.65,692.53,225,692.53z M375,692.53
		c-25.65,0-48.27-12.89-61.79-32.53c13.52-19.64,36.14-32.53,61.79-32.53s48.27,12.89,61.79,32.53
		C423.27,679.64,400.65,692.53,375,692.53z M525,692.53c-25.65,0-48.27-12.89-61.79-32.53c13.52-19.64,36.14-32.53,61.79-32.53
		c25.65,0,48.27,12.89,61.79,32.53C573.27,679.64,550.65,692.53,525,692.53z M675,692.53c-25.65,0-48.27-12.89-61.79-32.53
		c13.52-19.64,36.14-32.53,61.79-32.53s48.27,12.89,61.79,32.53C723.27,679.64,700.65,692.53,675,692.53z M825,692.53
		c-25.65,0-48.27-12.89-61.79-32.53c13.52-19.64,36.14-32.53,61.79-32.53c25.65,0,48.27,12.89,61.79,32.53
		C873.27,679.64,850.65,692.53,825,692.53z M975,692.53c-25.65,0-48.27-12.89-61.79-32.53c13.52-19.64,36.14-32.53,61.79-32.53
		s48.27,12.89,61.79,32.53C1023.27,679.64,1000.65,692.53,975,692.53z M1125,692.53c-25.65,0-48.27-12.89-61.79-32.53
		c13.52-19.64,36.14-32.53,61.79-32.53s48.27,12.89,61.79,32.53C1173.27,679.64,1150.65,692.53,1125,692.53z"/>
	<path class="st1" d="M1127.67,767.4c-1.74-6.33-2.67-12.99-2.67-19.87c0,6.88-0.93,13.54-2.67,19.87
		c-40.18-1.41-72.33-34.41-72.33-74.93c0,40.52-32.15,73.52-72.33,74.93c-1.74-6.33-2.67-12.99-2.67-19.87
		c0,6.88-0.93,13.54-2.67,19.87c-40.18-1.41-72.33-34.41-72.33-74.93c0,40.52-32.15,73.52-72.33,74.93
		c-1.74-6.33-2.67-12.99-2.67-19.87c0,6.88-0.93,13.54-2.67,19.87c-40.18-1.41-72.33-34.41-72.33-74.93
		c0,40.52-32.15,73.52-72.33,74.93c-1.74-6.33-2.67-12.99-2.67-19.87c0,6.88-0.93,13.54-2.67,19.87
		c-40.18-1.41-72.33-34.41-72.33-74.93c0,40.52-32.15,73.52-72.33,74.93c-1.74-6.33-2.67-12.99-2.67-19.87
		c0,6.88-0.93,13.54-2.67,19.87c-40.18-1.41-72.33-34.41-72.33-74.93c0,40.52-32.15,73.52-72.33,74.93
		c-1.74-6.33-2.67-12.99-2.67-19.87c0,6.88-0.93,13.54-2.67,19.87c-40.18-1.41-72.33-34.41-72.33-74.93
		c0,40.52-32.15,73.52-72.33,74.93c-1.74-6.33-2.67-12.99-2.67-19.87c0,6.88-0.93,13.54-2.67,19.87
		c-40.18-1.41-72.33-34.41-72.33-74.93c0,40.52-32.15,73.52-72.33,74.93c-1.74-6.33-2.67-12.99-2.67-19.87
		c0,6.88-0.93,13.54-2.67,19.87C32.15,765.99,0,732.99,0,692.47v55c25.65,0,48.27,12.89,61.79,32.53
		C48.27,799.64,25.65,812.53,0,812.53v55C0,827,32.15,794.01,72.33,792.6c1.74,6.33,2.67,12.99,2.67,19.87
		c0-6.88,0.93-13.54,2.67-19.87c40.18,1.41,72.33,34.41,72.33,74.93c0-40.52,32.15-73.52,72.33-74.93
		c1.74,6.33,2.67,12.99,2.67,19.87c0-6.88,0.93-13.54,2.67-19.87c40.18,1.41,72.33,34.41,72.33,74.93
		c0-40.52,32.15-73.52,72.33-74.93c1.74,6.33,2.67,12.99,2.67,19.87c0-6.88,0.93-13.54,2.67-19.87
		c40.18,1.41,72.33,34.41,72.33,74.93c0-40.52,32.15-73.52,72.33-74.93c1.74,6.33,2.67,12.99,2.67,19.87
		c0-6.88,0.93-13.54,2.67-19.87c40.18,1.41,72.33,34.41,72.33,74.93c0-40.52,32.15-73.52,72.33-74.93
		c1.74,6.33,2.67,12.99,2.67,19.87c0-6.88,0.93-13.54,2.67-19.87c40.18,1.41,72.33,34.41,72.33,74.93
		c0-40.52,32.15-73.52,72.33-74.93c1.74,6.33,2.67,12.99,2.67,19.87c0-6.88,0.93-13.54,2.67-19.87
		c40.18,1.41,72.33,34.41,72.33,74.93c0-40.52,32.15-73.52,72.33-74.93c1.74,6.33,2.67,12.99,2.67,19.87
		c0-6.88,0.93-13.54,2.67-19.87c40.18,1.41,72.33,34.41,72.33,74.93c0-40.52,32.15-73.52,72.33-74.93
		c1.74,6.33,2.67,12.99,2.67,19.87c0-6.88,0.93-13.54,2.67-19.87c40.18,1.41,72.33,34.41,72.33,74.93c0,0,0,0,0,0v-55
		c-25.65,0-48.27-12.89-61.79-32.53c13.52-19.64,36.14-32.53,61.79-32.53v-55C1200,732.99,1167.85,765.99,1127.67,767.4z
		 M150,812.53L150,812.53c-25.65,0-48.27-12.89-61.79-32.53c13.52-19.64,36.14-32.53,61.79-32.53s48.27,12.89,61.79,32.53
		C198.27,799.64,175.65,812.53,150,812.53z M300,812.53L300,812.53c-25.65,0-48.27-12.89-61.79-32.53
		c13.52-19.64,36.14-32.53,61.79-32.53s48.27,12.89,61.79,32.53C348.27,799.64,325.65,812.53,300,812.53z M450,812.53L450,812.53
		c-25.65,0-48.27-12.89-61.79-32.53c13.52-19.64,36.14-32.53,61.79-32.53s48.27,12.89,61.79,32.53
		C498.27,799.64,475.65,812.53,450,812.53z M600,812.53L600,812.53c-25.65,0-48.27-12.89-61.79-32.53
		c13.52-19.64,36.14-32.53,61.79-32.53s48.27,12.89,61.79,32.53C648.27,799.64,625.65,812.53,600,812.53z M750,812.53L750,812.53
		c-25.65,0-48.27-12.89-61.79-32.53c13.52-19.64,36.14-32.53,61.79-32.53s48.27,12.89,61.79,32.53
		C798.27,799.64,775.65,812.53,750,812.53z M900,812.53c-25.65,0-48.27-12.89-61.79-32.53c13.52-19.64,36.14-32.53,61.79-32.53
		s48.27,12.89,61.79,32.53C948.27,799.64,925.65,812.53,900,812.53z M1050,812.53c-25.65,0-48.27-12.89-61.79-32.53
		c13.52-19.64,36.14-32.53,61.79-32.53s48.27,12.89,61.79,32.53C1098.27,799.64,1075.65,812.53,1050,812.53z"/>
	<path class="st1" d="M1125,812.47c0,40.52-32.15,73.52-72.33,74.93c-1.74-6.33-2.67-12.99-2.67-19.87c0,6.88-0.93,13.54-2.67,19.87
		c-40.18-1.41-72.33-34.41-72.33-74.93c0,40.52-32.15,73.52-72.33,74.93c-1.74-6.33-2.67-12.99-2.67-19.87
		c0,6.88-0.93,13.54-2.67,19.87c-40.18-1.41-72.33-34.41-72.33-74.93c0,40.52-32.15,73.52-72.33,74.93
		c-1.74-6.33-2.67-12.99-2.67-19.87c0,6.88-0.93,13.54-2.67,19.87c-40.18-1.41-72.33-34.41-72.33-74.93
		c0,40.52-32.15,73.52-72.33,74.93c-1.74-6.33-2.67-12.99-2.67-19.87c0,6.88-0.93,13.54-2.67,19.87
		c-40.18-1.41-72.33-34.41-72.33-74.93c0,40.52-32.15,73.52-72.33,74.93c-1.74-6.33-2.67-12.99-2.67-19.87
		c0,6.88-0.93,13.54-2.67,19.87c-40.18-1.41-72.33-34.41-72.33-74.93c0,40.52-32.15,73.52-72.33,74.93
		c-1.74-6.33-2.67-12.99-2.67-19.87c0,6.88-0.93,13.54-2.67,19.87c-40.18-1.41-72.33-34.41-72.33-74.93
		c0,40.52-32.15,73.52-72.33,74.93c-1.74-6.33-2.67-12.99-2.67-19.87c0,6.88-0.93,13.54-2.67,19.87
		C107.15,885.99,75,852.99,75,812.47c0,40.52-32.15,73.52-72.33,74.93C0.93,881.08,0,874.41,0,867.53v27.49v17.41v0.1v19.94
		c0-6.88,0.93-13.54,2.67-19.87C42.85,914.01,75,947.01,75,987.53c0-40.52,32.15-73.52,72.33-74.93c1.74,6.33,2.67,12.99,2.67,19.87
		c0-6.88,0.93-13.54,2.67-19.87c40.18,1.41,72.33,34.41,72.33,74.93c0-40.52,32.15-73.52,72.33-74.93
		c1.74,6.33,2.67,12.99,2.67,19.87c0-6.88,0.93-13.54,2.67-19.87c40.18,1.41,72.33,34.41,72.33,74.93
		c0-40.52,32.15-73.52,72.33-74.93c1.74,6.33,2.67,12.99,2.67,19.87c0-6.88,0.93-13.54,2.67-19.87
		c40.18,1.41,72.33,34.41,72.33,74.93c0-40.52,32.15-73.52,72.33-74.93c1.74,6.33,2.67,12.99,2.67,19.87
		c0-6.88,0.93-13.54,2.67-19.87c40.18,1.41,72.33,34.41,72.33,74.93c0-40.52,32.15-73.52,72.33-74.93
		c1.74,6.33,2.67,12.99,2.67,19.87c0-6.88,0.93-13.54,2.67-19.87c40.18,1.41,72.33,34.41,72.33,74.93
		c0-40.52,32.15-73.52,72.33-74.93c1.74,6.33,2.67,12.99,2.67,19.87c0-6.88,0.93-13.54,2.67-19.87
		c40.18,1.41,72.33,34.41,72.33,74.93c0-40.52,32.15-73.52,72.33-74.93c1.74,6.33,2.67,12.99,2.67,19.87
		c0-6.88,0.93-13.54,2.67-19.87c40.18,1.41,72.33,34.41,72.33,74.93c0-40.52,32.15-73.52,72.33-74.93
		c1.74,6.33,2.67,12.99,2.67,19.87v-19.94v-0.1v-17.41v-7.46v-0.1v-19.94c0,0,0,0,0,0c0,6.88-0.93,13.54-2.67,19.87
		C1157.15,885.99,1125,852.99,1125,812.47z M75,932.53c-25.65,0-48.27-12.89-61.79-32.53c13.52-19.64,36.14-32.53,61.79-32.53
		s48.27,12.89,61.79,32.53C123.27,919.64,100.65,932.53,75,932.53z M225,932.53c-25.65,0-48.27-12.89-61.79-32.53
		c13.52-19.64,36.14-32.53,61.79-32.53s48.27,12.89,61.79,32.53C273.27,919.64,250.65,932.53,225,932.53z M375,932.53
		c-25.65,0-48.27-12.89-61.79-32.53c13.52-19.64,36.14-32.53,61.79-32.53s48.27,12.89,61.79,32.53
		C423.27,919.64,400.65,932.53,375,932.53z M525,932.53c-25.65,0-48.27-12.89-61.79-32.53c13.52-19.64,36.14-32.53,61.79-32.53
		c25.65,0,48.27,12.89,61.79,32.53C573.27,919.64,550.65,932.53,525,932.53z M675,932.53c-25.65,0-48.27-12.89-61.79-32.53
		c13.52-19.64,36.14-32.53,61.79-32.53s48.27,12.89,61.79,32.53C723.27,919.64,700.65,932.53,675,932.53z M825,932.53
		c-25.65,0-48.27-12.89-61.79-32.53c13.52-19.64,36.14-32.53,61.79-32.53c25.65,0,48.27,12.89,61.79,32.53
		C873.27,919.64,850.65,932.53,825,932.53z M975,932.53c-25.65,0-48.27-12.89-61.79-32.53c13.52-19.64,36.14-32.53,61.79-32.53
		s48.27,12.89,61.79,32.53C1023.27,919.64,1000.65,932.53,975,932.53z M1125,932.53c-25.65,0-48.27-12.89-61.79-32.53
		c13.52-19.64,36.14-32.53,61.79-32.53s48.27,12.89,61.79,32.53C1173.27,919.64,1150.65,932.53,1125,932.53z"/>
	<path class="st1" d="M1127.67,1007.4c-1.74-6.33-2.67-12.99-2.67-19.87c0,6.88-0.93,13.54-2.67,19.87
		c-40.18-1.41-72.33-34.41-72.33-74.93c0,40.52-32.15,73.52-72.33,74.93c-1.74-6.33-2.67-12.99-2.67-19.87
		c0,6.88-0.93,13.54-2.67,19.87c-40.18-1.41-72.33-34.41-72.33-74.93c0,40.52-32.15,73.52-72.33,74.93
		c-1.74-6.33-2.67-12.99-2.67-19.87c0,6.88-0.93,13.54-2.67,19.87c-40.18-1.41-72.33-34.41-72.33-74.93
		c0,40.52-32.15,73.52-72.33,74.93c-1.74-6.33-2.67-12.99-2.67-19.87c0,6.88-0.93,13.54-2.67,19.87
		c-40.18-1.41-72.33-34.41-72.33-74.93c0,40.52-32.15,73.52-72.33,74.93c-1.74-6.33-2.67-12.99-2.67-19.87
		c0,6.88-0.93,13.54-2.67,19.87c-40.18-1.41-72.33-34.41-72.33-74.93c0,40.52-32.15,73.52-72.33,74.93
		c-1.74-6.33-2.67-12.99-2.67-19.87c0,6.88-0.93,13.54-2.67,19.87c-40.18-1.41-72.33-34.41-72.33-74.93
		c0,40.52-32.15,73.52-72.33,74.93c-1.74-6.33-2.67-12.99-2.67-19.87c0,6.88-0.93,13.54-2.67,19.87
		c-40.18-1.41-72.33-34.41-72.33-74.93c0,40.52-32.15,73.52-72.33,74.93c-1.74-6.33-2.67-12.99-2.67-19.87
		c0,6.88-0.93,13.54-2.67,19.87C32.15,1005.99,0,972.99,0,932.47v55c25.65,0,48.27,12.89,61.79,32.53
		c-13.52,19.64-36.14,32.53-61.79,32.53v55c0-40.52,32.15-73.52,72.33-74.93c1.74,6.33,2.67,12.99,2.67,19.87
		c0-6.88,0.93-13.54,2.67-19.87c40.18,1.41,72.33,34.41,72.33,74.93c0-40.52,32.15-73.52,72.33-74.93
		c1.74,6.33,2.67,12.99,2.67,19.87c0-6.88,0.93-13.54,2.67-19.87c40.18,1.41,72.33,34.41,72.33,74.93
		c0-40.52,32.15-73.52,72.33-74.93c1.74,6.33,2.67,12.99,2.67,19.87c0-6.88,0.93-13.54,2.67-19.87
		c40.18,1.41,72.33,34.41,72.33,74.93c0-40.52,32.15-73.52,72.33-74.93c1.74,6.33,2.67,12.99,2.67,19.87
		c0-6.88,0.93-13.54,2.67-19.87c40.18,1.41,72.33,34.41,72.33,74.93c0-40.52,32.15-73.52,72.33-74.93
		c1.74,6.33,2.67,12.99,2.67,19.87c0-6.88,0.93-13.54,2.67-19.87c40.18,1.41,72.33,34.41,72.33,74.93
		c0-40.52,32.15-73.52,72.33-74.93c1.74,6.33,2.67,12.99,2.67,19.87c0-6.88,0.93-13.54,2.67-19.87
		c40.18,1.41,72.33,34.41,72.33,74.93c0-40.52,32.15-73.52,72.33-74.93c1.74,6.33,2.67,12.99,2.67,19.87
		c0-6.88,0.93-13.54,2.67-19.87c40.18,1.41,72.33,34.41,72.33,74.93c0-40.52,32.15-73.52,72.33-74.93
		c1.74,6.33,2.67,12.99,2.67,19.87c0-6.88,0.93-13.54,2.67-19.87c40.18,1.41,72.33,34.41,72.33,74.93c0,0,0,0,0,0v-55
		c-25.65,0-48.27-12.89-61.79-32.53c13.52-19.64,36.14-32.53,61.79-32.53v-55C1200,972.99,1167.85,1005.99,1127.67,1007.4z
		 M150,1052.53L150,1052.53c-25.65,0-48.27-12.89-61.79-32.53c13.52-19.64,36.14-32.53,61.79-32.53s48.27,12.89,61.79,32.53
		C198.27,1039.64,175.65,1052.53,150,1052.53z M300,1052.53L300,1052.53c-25.65,0-48.27-12.89-61.79-32.53
		c13.52-19.64,36.14-32.53,61.79-32.53s48.27,12.89,61.79,32.53C348.27,1039.64,325.65,1052.53,300,1052.53z M450,1052.53
		L450,1052.53c-25.65,0-48.27-12.89-61.79-32.53c13.52-19.64,36.14-32.53,61.79-32.53s48.27,12.89,61.79,32.53
		C498.27,1039.64,475.65,1052.53,450,1052.53z M600,1052.53L600,1052.53c-25.65,0-48.27-12.89-61.79-32.53
		c13.52-19.64,36.14-32.53,61.79-32.53s48.27,12.89,61.79,32.53C648.27,1039.64,625.65,1052.53,600,1052.53z M750,1052.53
		L750,1052.53c-25.65,0-48.27-12.89-61.79-32.53c13.52-19.64,36.14-32.53,61.79-32.53s48.27,12.89,61.79,32.53
		C798.27,1039.64,775.65,1052.53,750,1052.53z M900,1052.53c-25.65,0-48.27-12.89-61.79-32.53c13.52-19.64,36.14-32.53,61.79-32.53
		s48.27,12.89,61.79,32.53C948.27,1039.64,925.65,1052.53,900,1052.53z M1050,1052.53c-25.65,0-48.27-12.89-61.79-32.53
		c13.52-19.64,36.14-32.53,61.79-32.53s48.27,12.89,61.79,32.53C1098.27,1039.64,1075.65,1052.53,1050,1052.53z"/>
	<path class="st1" d="M1125,1052.47c0,40.52-32.15,73.52-72.33,74.93c-1.74-6.33-2.67-12.99-2.67-19.87
		c0,6.88-0.93,13.54-2.67,19.87c-40.18-1.41-72.33-34.41-72.33-74.93c0,40.52-32.15,73.52-72.33,74.93
		c-1.74-6.33-2.67-12.99-2.67-19.87c0,6.88-0.93,13.54-2.67,19.87c-40.18-1.41-72.33-34.41-72.33-74.93
		c0,40.52-32.15,73.52-72.33,74.93c-1.74-6.33-2.67-12.99-2.67-19.87c0,6.88-0.93,13.54-2.67,19.87
		c-40.18-1.41-72.33-34.41-72.33-74.93c0,40.52-32.15,73.52-72.33,74.93c-1.74-6.33-2.67-12.99-2.67-19.87
		c0,6.88-0.93,13.54-2.67,19.87c-40.18-1.41-72.33-34.41-72.33-74.93c0,40.52-32.15,73.52-72.33,74.93
		c-1.74-6.33-2.67-12.99-2.67-19.87c0,6.88-0.93,13.54-2.67,19.87c-40.18-1.41-72.33-34.41-72.33-74.93
		c0,40.52-32.15,73.52-72.33,74.93c-1.74-6.33-2.67-12.99-2.67-19.87c0,6.88-0.93,13.54-2.67,19.87
		c-40.18-1.41-72.33-34.41-72.33-74.93c0,40.52-32.15,73.52-72.33,74.93c-1.74-6.33-2.67-12.99-2.67-19.87
		c0,6.88-0.93,13.54-2.67,19.87c-40.18-1.41-72.33-34.41-72.33-74.93c0,40.52-32.15,73.52-72.33,74.93
		c-1.74-6.33-2.67-12.99-2.67-19.87v27.49v17.41v0.1v19.94c0-6.88,0.93-13.54,2.67-19.87c30.54,1.07,56.42,20.39,67.09,47.4h10.48
		c10.67-27.01,36.55-46.33,67.09-47.4c1.74,6.33,2.67,12.99,2.67,19.87c0-6.88,0.93-13.54,2.67-19.87
		c30.54,1.07,56.42,20.39,67.09,47.4h10.48c10.67-27.01,36.55-46.33,67.09-47.4c1.74,6.33,2.67,12.99,2.67,19.87
		c0-6.88,0.93-13.54,2.67-19.87c30.54,1.07,56.42,20.39,67.09,47.4h10.48c10.67-27.01,36.55-46.33,67.09-47.4
		c1.74,6.33,2.67,12.99,2.67,19.87c0-6.88,0.93-13.54,2.67-19.87c30.54,1.07,56.42,20.39,67.09,47.4h10.48
		c10.67-27.01,36.55-46.33,67.09-47.4c1.74,6.33,2.67,12.99,2.67,19.87c0-6.88,0.93-13.54,2.67-19.87
		c30.54,1.07,56.42,20.39,67.09,47.4h10.48c10.67-27.01,36.55-46.33,67.09-47.4c1.74,6.33,2.67,12.99,2.67,19.87
		c0-6.88,0.93-13.54,2.67-19.87c30.54,1.07,56.42,20.39,67.09,47.4h10.48c10.67-27.01,36.55-46.33,67.09-47.4
		c1.74,6.33,2.67,12.99,2.67,19.87c0-6.88,0.93-13.54,2.67-19.87c30.54,1.07,56.42,20.39,67.09,47.4h10.48
		c10.67-27.01,36.55-46.33,67.09-47.4c1.74,6.33,2.67,12.99,2.67,19.87c0-6.88,0.93-13.54,2.67-19.87
		c30.54,1.07,56.42,20.39,67.09,47.4h10.48c10.67-27.01,36.55-46.33,67.09-47.4c1.74,6.33,2.67,12.99,2.67,19.87v-19.94v-0.1v-17.41
		v-7.46v-0.1v-19.94c0,0,0,0,0,0c0,6.88-0.93,13.54-2.67,19.87C1157.15,1125.99,1125,1092.99,1125,1052.47z M75,1172.53
		c-25.65,0-48.27-12.89-61.79-32.53c13.52-19.64,36.14-32.53,61.79-32.53s48.27,12.89,61.79,32.53
		C123.27,1159.64,100.65,1172.53,75,1172.53z M225,1172.53c-25.65,0-48.27-12.89-61.79-32.53c13.52-19.64,36.14-32.53,61.79-32.53
		s48.27,12.89,61.79,32.53C273.27,1159.64,250.65,1172.53,225,1172.53z M375,1172.53c-25.65,0-48.27-12.89-61.79-32.53
		c13.52-19.64,36.14-32.53,61.79-32.53s48.27,12.89,61.79,32.53C423.27,1159.64,400.65,1172.53,375,1172.53z M525,1172.53
		c-25.65,0-48.27-12.89-61.79-32.53c13.52-19.64,36.14-32.53,61.79-32.53c25.65,0,48.27,12.89,61.79,32.53
		C573.27,1159.64,550.65,1172.53,525,1172.53z M675,1172.53c-25.65,0-48.27-12.89-61.79-32.53c13.52-19.64,36.14-32.53,61.79-32.53
		s48.27,12.89,61.79,32.53C723.27,1159.64,700.65,1172.53,675,1172.53z M825,1172.53c-25.65,0-48.27-12.89-61.79-32.53
		c13.52-19.64,36.14-32.53,61.79-32.53c25.65,0,48.27,12.89,61.79,32.53C873.27,1159.64,850.65,1172.53,825,1172.53z M975,1172.53
		c-25.65,0-48.27-12.89-61.79-32.53c13.52-19.64,36.14-32.53,61.79-32.53s48.27,12.89,61.79,32.53
		C1023.27,1159.64,1000.65,1172.53,975,1172.53z M1125,1172.53c-25.65,0-48.27-12.89-61.79-32.53
		c13.52-19.64,36.14-32.53,61.79-32.53s48.27,12.89,61.79,32.53C1173.27,1159.64,1150.65,1172.53,1125,1172.53z"/>
	<path class="st0" d="M0,1200h5.24c-3.37-8.53-5.24-17.81-5.24-27.53V1200z"/>
	<path class="st0" d="M144.76,1200h10.48c-3.37-8.53-5.24-17.81-5.24-27.53C150,1182.19,148.13,1191.47,144.76,1200z"/>
	<path class="st0" d="M294.76,1200h10.48c-3.37-8.53-5.24-17.81-5.24-27.53C300,1182.19,298.13,1191.47,294.76,1200z"/>
	<path class="st0" d="M444.76,1200h10.48c-3.37-8.53-5.24-17.81-5.24-27.53C450,1182.19,448.13,1191.47,444.76,1200z"/>
	<path class="st0" d="M594.76,1200h10.48c-3.37-8.53-5.24-17.81-5.24-27.53C600,1182.19,598.13,1191.47,594.76,1200z"/>
	<path class="st0" d="M744.76,1200h10.48c-3.37-8.53-5.24-17.81-5.24-27.53C750,1182.19,748.13,1191.47,744.76,1200z"/>
	<path class="st0" d="M894.76,1200h10.48c-3.37-8.53-5.24-17.81-5.24-27.53C900,1182.19,898.13,1191.47,894.76,1200z"/>
	<path class="st0" d="M1044.76,1200h10.48c-3.37-8.53-5.24-17.81-5.24-27.53C1050,1182.19,1048.13,1191.47,1044.76,1200z"/>
	<path class="st0" d="M1200,1200v-27.53c0,9.72-1.87,19-5.24,27.53H1200z"/>
</g>
</svg>
